<svg id="outline" xmlns="http://www.w3.org/2000/svg" viewBox="0 0 399.69 263.62"><defs><style>.cls-1{fill:#fff;}.cls-2{fill:#282828;}.cls-3{fill:#d2d2d2;}</style></defs><polygon class="cls-1" points="97.46 27.1 97.46 77.92 142.29 103.81 187.46 77.73 187.46 26.92 97.46 27.1"/><path class="cls-2" d="M142.3,104.31a.43.43,0,0,1-.25-.07L97.21,78.35a.47.47,0,0,1-.25-.43V27.1a.5.5,0,0,1,.5-.5l90-.18a.67.67,0,0,1,.35.14.49.49,0,0,1,.15.36V77.73a.5.5,0,0,1-.25.44l-45.16,26.07A.47.47,0,0,1,142.3,104.31ZM98,77.63l44.34,25.6L187,77.44v-50L98,27.6Z"/><polygon class="cls-1" points="142.3 52.99 187.46 26.91 142.62 1.03 97.46 27.1 142.3 52.99"/><path class="cls-2" d="M142.3,53.49a.43.43,0,0,1-.25-.07L97.21,27.54a.5.5,0,0,1,0-.87L142.37.59a.55.55,0,0,1,.5,0l44.84,25.89a.5.5,0,0,1,0,.87L142.55,53.42A.47.47,0,0,1,142.3,53.49ZM98.46,27.1,142.3,52.41l44.16-25.5L142.62,1.6Z"/><polygon class="cls-1" points="97.46 27.1 97.46 77.92 142.29 103.81 187.46 77.73 187.46 26.91 142.29 52.99 97.46 27.1 97.46 27.1"/><path class="cls-2" d="M142.3,104.31a.43.43,0,0,1-.25-.07L97.21,78.35a.48.48,0,0,1-.25-.43V27.1a.5.5,0,0,1,.5-.5h0a.55.55,0,0,1,.25.07L142.3,52.41l44.91-25.93a.5.5,0,0,1,.75.44V77.73a.47.47,0,0,1-.25.43l-45.16,26.08A.47.47,0,0,1,142.3,104.31ZM98,77.63l44.34,25.6L187,77.44V27.78L142.55,53.42a.5.5,0,0,1-.5,0L98,28Z"/><path class="cls-2" d="M142.3,104.31a.5.5,0,0,1-.5-.5V53a.5.5,0,0,1,.5-.5.51.51,0,0,1,.5.5v50.82A.5.5,0,0,1,142.3,104.31Z"/><polygon class="cls-1" points="100.03 75.92 100.03 67.97 107.04 72.02 107.04 79.97 100.03 75.92"/><path class="cls-2" d="M107,80.47a.57.57,0,0,1-.25-.06l-7-4.06a.49.49,0,0,1-.25-.43V68a.5.5,0,0,1,.75-.44l7,4.06a.48.48,0,0,1,.25.43v8a.5.5,0,0,1-.25.44A.51.51,0,0,1,107,80.47Zm-6.52-4.84,6,3.48v-6.8l-6-3.48Z"/><polygon class="cls-3" points="124.85 42.92 124.85 54.26 114.89 48.51 114.89 37.17 160.07 11.1 170.03 16.85 124.85 42.92"/><path class="cls-2" d="M125.35,55.13l-11-6.33V36.88l45.68-26.36,11,6.33L125.35,43.21Zm-10-6.91,9,5.17V42.63L169,16.85l-9-5.17L115.39,37.46Z"/><line class="cls-3" x1="114.89" y1="37.17" x2="124.85" y2="42.92"/><rect class="cls-2" x="119.37" y="34.29" width="1" height="11.5" transform="translate(25.26 123.83) rotate(-60)"/><polygon class="cls-1" points="370.23 43.59 370.23 77.6 310.21 112.25 284.2 97.23 284.2 63.22 370.23 43.59"/><path class="cls-2" d="M310.21,112.75a.45.45,0,0,1-.25-.07l-26-15a.48.48,0,0,1-.25-.43v-34a.5.5,0,0,1,.38-.49l86-19.63a.51.51,0,0,1,.43.09.51.51,0,0,1,.19.4v34a.52.52,0,0,1-.25.43l-60,34.65A.47.47,0,0,1,310.21,112.75ZM284.7,96.94l25.51,14.73,59.52-34.36V44.21l-85,19.41Z"/><polygon class="cls-1" points="310.21 78.24 284.19 63.22 344.21 28.57 370.22 43.59 310.21 78.24"/><path class="cls-2" d="M310.21,78.74a.52.52,0,0,1-.25-.07l-26-15a.49.49,0,0,1,0-.86l60-34.65a.5.5,0,0,1,.5,0l26,15a.5.5,0,0,1,.25.44.48.48,0,0,1-.25.43l-60,34.65A.59.59,0,0,1,310.21,78.74Zm-25-15.52,25,14.44,59-34.07-25-14.44Z"/><polygon class="cls-1" points="370.23 43.59 370.23 77.59 310.21 112.25 284.2 97.23 284.2 63.22 310.21 78.23 370.22 43.59 370.23 43.59"/><path class="cls-2" d="M310.21,112.75a.45.45,0,0,1-.25-.07l-26-15a.48.48,0,0,1-.25-.43v-34a.48.48,0,0,1,.25-.43.5.5,0,0,1,.5,0l25.76,14.87L370,43.15a.52.52,0,0,1,.76.43v34a.52.52,0,0,1-.25.44l-60,34.65A.47.47,0,0,1,310.21,112.75ZM284.7,96.94l25.51,14.73L369.73,77.3V44.45L310.46,78.67a.5.5,0,0,1-.5,0L284.7,64.09Z"/><path class="cls-2" d="M310.21,112.75a.5.5,0,0,1-.5-.5v-34a.5.5,0,0,1,1,0v34A.5.5,0,0,1,310.21,112.75Z"/><polygon class="cls-1" points="357.39 80.34 357.39 69.7 366.79 64.27 366.79 74.92 357.39 80.34"/><path class="cls-2" d="M357.39,80.84a.57.57,0,0,1-.25-.06.52.52,0,0,1-.25-.44V69.7a.52.52,0,0,1,.25-.44l9.4-5.42a.5.5,0,0,1,.5,0,.5.5,0,0,1,.25.43V74.92a.5.5,0,0,1-.25.43l-9.4,5.43A.51.51,0,0,1,357.39,80.84Zm.5-10.86v9.5l8.4-4.85V65.14Z"/><polygon class="cls-3" points="333.56 64.76 333.56 79.94 346.89 72.24 346.89 57.06 320.86 42.05 307.52 49.75 333.56 64.76"/><path class="cls-2" d="M333.06,80.8V65.05l-26.54-15.3,14.34-8.28,26.53,15.3V72.53Zm-24.54-31,25.54,14.72v14.6L346.39,72V57.35L320.86,42.63Z"/><line class="cls-3" x1="346.89" y1="57.06" x2="333.56" y2="64.76"/><rect class="cls-2" x="332.52" y="60.41" width="15.4" height="1" transform="translate(15.12 178.24) rotate(-29.99)"/><polygon class="cls-1" points="267.19 122.57 267.19 156.58 327.21 191.23 387.67 156.33 387.67 122.32 267.19 122.57"/><path class="cls-2" d="M327.21,191.73a.47.47,0,0,1-.25-.07L267,157a.48.48,0,0,1-.25-.43v-34a.49.49,0,0,1,.49-.5l120.48-.25h0a.5.5,0,0,1,.35.14.53.53,0,0,1,.15.36v34a.5.5,0,0,1-.25.43l-60.46,34.9A.45.45,0,0,1,327.21,191.73ZM267.7,156.29l59.51,34.36,60-34.61V122.82l-119.47.25Z"/><polygon class="cls-1" points="327.21 157.22 387.67 122.32 327.65 87.67 267.2 122.57 327.21 157.22"/><path class="cls-2" d="M327.21,157.72a.47.47,0,0,1-.25-.07L267,123a.49.49,0,0,1,0-.86L327.4,87.23a.5.5,0,0,1,.5,0l60,34.65a.5.5,0,0,1,0,.87l-60.46,34.9A.43.43,0,0,1,327.21,157.72Zm-59-35.15,59,34.07,59.46-34.32-59-34.08Z"/><polygon class="cls-1" points="267.19 122.57 267.19 156.58 327.21 191.23 387.67 156.32 387.67 122.32 327.21 157.22 267.2 122.57 267.19 122.57"/><path class="cls-2" d="M327.21,191.73a.47.47,0,0,1-.25-.07l-60-34.65a.52.52,0,0,1-.25-.43v-34a.5.5,0,0,1,.5-.5h0a.54.54,0,0,1,.25.06l59.76,34.51,60.21-34.76a.5.5,0,0,1,.5,0,.52.52,0,0,1,.25.44v34a.52.52,0,0,1-.25.43l-60.46,34.9A.45.45,0,0,1,327.21,191.73Zm-59.52-35.44,59.52,34.36,60-34.61V123.18l-59.71,34.47a.5.5,0,0,1-.5,0l-59.27-34.22Z"/><path class="cls-2" d="M327.21,191.73a.5.5,0,0,1-.5-.5v-34a.5.5,0,0,1,.5-.5.5.5,0,0,1,.5.5v34A.5.5,0,0,1,327.21,191.73Z"/><polygon class="cls-3" points="303.87 143.74 303.87 158.92 290.53 151.22 290.53 136.04 351.01 101.15 364.34 108.85 303.87 143.74"/><path class="cls-2" d="M304.37,159.79,290,151.51V135.75l.25-.14,60.73-35,14.33,8.28-61,35.18ZM291,150.93l12.34,7.12v-14.6l.25-.14,59.72-34.46L351,101.73l-60,34.6Z"/><line class="cls-3" x1="290.53" y1="136.04" x2="303.86" y2="143.74"/><rect class="cls-2" x="296.7" y="132.19" width="1" height="15.4" transform="translate(27.46 327.34) rotate(-60)"/><polygon class="cls-1" points="375.97 159.75 375.97 149.1 385.37 143.68 385.37 154.33 375.97 159.75"/><path class="cls-2" d="M376,160.25a.47.47,0,0,1-.25-.07.49.49,0,0,1-.25-.43V149.1a.52.52,0,0,1,.25-.43l9.4-5.42a.5.5,0,0,1,.5,0,.5.5,0,0,1,.25.43v10.65a.5.5,0,0,1-.25.43l-9.4,5.42A.43.43,0,0,1,376,160.25Zm.5-10.86v9.5l8.4-4.85v-9.49Z"/><polygon class="cls-1" points="284.42 105.31 284.42 173.33 224.4 207.98 163.95 173.08 163.95 105.06 284.42 105.31"/><path class="cls-2" d="M224.4,208.48a.57.57,0,0,1-.25-.06L163.7,173.51a.48.48,0,0,1-.25-.43v-68a.47.47,0,0,1,.15-.35.39.39,0,0,1,.35-.15l120.47.25a.5.5,0,0,1,.5.5v68a.47.47,0,0,1-.25.43l-60,34.66A.51.51,0,0,1,224.4,208.48Zm-60-35.69,60,34.62L283.92,173V105.81l-119.47-.25Z"/><polygon class="cls-1" points="224.4 139.96 163.95 105.06 223.97 70.41 284.42 105.31 224.4 139.96"/><path class="cls-2" d="M224.4,140.46a.47.47,0,0,1-.25-.07l-60.45-34.9a.48.48,0,0,1-.25-.43.47.47,0,0,1,.25-.43l60-34.66a.55.55,0,0,1,.5,0l60.46,34.91a.5.5,0,0,1,.25.43.49.49,0,0,1-.25.43l-60,34.65A.43.43,0,0,1,224.4,140.46ZM165,105.06l59.45,34.33,59-34.08L224,71Z"/><polygon class="cls-1" points="284.42 105.31 284.42 173.33 224.4 207.98 163.95 173.08 163.95 105.06 224.4 139.96 284.42 105.31 284.42 105.31"/><path class="cls-2" d="M224.4,208.48a.57.57,0,0,1-.25-.06L163.7,173.51a.48.48,0,0,1-.25-.43v-68a.48.48,0,0,1,.25-.43.5.5,0,0,1,.5,0l60.2,34.75,59.77-34.5a.51.51,0,0,1,.75.43v68a.48.48,0,0,1-.25.43l-60,34.66A.51.51,0,0,1,224.4,208.48Zm-60-35.69,60,34.62L283.92,173V106.17l-59.27,34.22a.5.5,0,0,1-.5,0l-59.7-34.46Z"/><path class="cls-2" d="M224.4,208.48a.5.5,0,0,1-.5-.5V140a.51.51,0,0,1,.5-.5.5.5,0,0,1,.5.5v68A.5.5,0,0,1,224.4,208.48Z"/><polygon class="cls-1" points="271.59 176.08 271.59 165.43 280.98 160.01 280.98 170.66 271.59 176.08"/><path class="cls-2" d="M271.59,176.58a.45.45,0,0,1-.25-.07.48.48,0,0,1-.25-.43V165.43a.48.48,0,0,1,.25-.43l9.39-5.43a.5.5,0,0,1,.75.44v10.64a.5.5,0,0,1-.25.44l-9.39,5.42A.47.47,0,0,1,271.59,176.58Zm.5-10.86v9.49l8.39-4.84v-9.5Z"/><polygon class="cls-3" points="247.75 126.48 247.75 141.66 261.08 133.96 261.08 118.78 200.61 83.89 187.28 91.59 247.75 126.48"/><path class="cls-2" d="M247.25,142.53V126.77l-61-35.18,14.34-8.28,61,35.18v15.76Zm-59-50.94,60,34.6V140.8l12.34-7.13v-14.6l-60-34.6Z"/><line class="cls-3" x1="261.09" y1="118.78" x2="247.75" y2="126.48"/><rect class="cls-2" x="246.72" y="122.13" width="15.4" height="1" transform="translate(-27.23 143.61) rotate(-29.99)"/><polygon class="cls-1" points="178 186.14 178 220.15 238.01 254.8 264.03 239.78 264.03 205.77 178 186.14"/><path class="cls-2" d="M238,255.3a.47.47,0,0,1-.25-.07l-60-34.65a.5.5,0,0,1-.25-.43v-34a.48.48,0,0,1,.19-.39.46.46,0,0,1,.42-.1l86,19.63a.5.5,0,0,1,.39.49v34a.5.5,0,0,1-.25.43l-26,15A.43.43,0,0,1,238,255.3ZM178.5,219.86,238,254.22l25.52-14.73V206.17l-85-19.41Z"/><polygon class="cls-1" points="238.02 220.79 264.03 205.77 204.01 171.12 178 186.14 238.02 220.79"/><path class="cls-2" d="M238,221.29a.43.43,0,0,1-.25-.07l-60-34.65a.48.48,0,0,1-.25-.43.5.5,0,0,1,.25-.44l26-15a.5.5,0,0,1,.5,0l60,34.65a.49.49,0,0,1,0,.86l-26,15A.47.47,0,0,1,238,221.29Zm-59-35.15,59,34.07,25-14.44L204,171.7Z"/><polygon class="cls-1" points="178 186.13 178 220.14 238.01 254.8 264.03 239.78 264.03 205.77 238.01 220.78 178 186.13 178 186.13"/><path class="cls-2" d="M238,255.3a.47.47,0,0,1-.25-.07l-60-34.65a.5.5,0,0,1-.25-.44v-34a.5.5,0,0,1,.5-.5h0a.54.54,0,0,1,.25.06L238,220.21l25.77-14.87a.5.5,0,0,1,.5,0,.5.5,0,0,1,.25.43v34a.5.5,0,0,1-.25.43l-26,15A.43.43,0,0,1,238,255.3ZM178.5,219.85,238,254.22l25.52-14.73V206.64l-25.27,14.58a.5.5,0,0,1-.5,0L178.5,187Z"/><path class="cls-2" d="M238,255.3a.51.51,0,0,1-.5-.5v-34a.5.5,0,0,1,.5-.5.5.5,0,0,1,.5.5v34A.5.5,0,0,1,238,255.3Z"/><polygon class="cls-1" points="181.44 217.47 181.44 206.82 190.83 212.25 190.83 222.89 181.44 217.47"/><path class="cls-2" d="M190.83,223.39a.54.54,0,0,1-.25-.06l-9.4-5.43a.5.5,0,0,1-.25-.43V206.82a.48.48,0,0,1,.25-.43.5.5,0,0,1,.5,0l9.39,5.42a.52.52,0,0,1,.25.44v10.64a.52.52,0,0,1-.25.44A.54.54,0,0,1,190.83,223.39Zm-8.9-6.21,8.4,4.85v-9.49l-8.39-4.85Z"/><polygon class="cls-3" points="214.67 207.31 214.67 222.49 201.33 214.79 201.33 199.61 227.37 184.6 240.7 192.3 214.67 207.31"/><path class="cls-2" d="M215.17,223.35l-14.34-8.27V199.32L227.37,184l14.33,8.27-26.53,15.3Zm-13.34-8.85,12.34,7.12V207L239.7,192.3l-12.33-7.12L201.83,199.9Z"/><line class="cls-3" x1="201.33" y1="199.61" x2="214.67" y2="207.31"/><rect class="cls-2" x="207.5" y="195.76" width="1" height="15.4" transform="translate(-72.2 281.87) rotate(-60)"/><polygon class="cls-1" points="398.77 191.46 398.77 225.47 338.76 260.12 312.74 245.1 312.74 211.09 398.77 191.46"/><path class="cls-2" d="M338.76,260.62a.43.43,0,0,1-.25-.07l-26-15a.5.5,0,0,1-.25-.43v-34a.5.5,0,0,1,.39-.49l86-19.63a.45.45,0,0,1,.42.1.48.48,0,0,1,.19.39v34a.5.5,0,0,1-.25.43l-60,34.65A.47.47,0,0,1,338.76,260.62Zm-25.52-15.81,25.52,14.73,59.51-34.36v-33.1l-85,19.41Z"/><polygon class="cls-1" points="338.75 226.11 312.74 211.09 372.76 176.44 398.77 191.46 338.75 226.11"/><path class="cls-2" d="M338.75,226.61a.47.47,0,0,1-.25-.07l-26-15a.49.49,0,0,1,0-.86l60-34.65a.5.5,0,0,1,.5,0l26,15a.52.52,0,0,1,.25.44.5.5,0,0,1-.25.43l-60,34.65A.43.43,0,0,1,338.75,226.61Zm-25-15.52,25,14.44,59-34.07-25-14.44Z"/><polygon class="cls-1" points="398.77 191.46 398.77 225.46 338.76 260.12 312.74 245.1 312.74 211.09 338.76 226.1 398.77 191.46 398.77 191.46"/><path class="cls-2" d="M338.76,260.62a.43.43,0,0,1-.25-.07l-26-15a.5.5,0,0,1-.25-.43v-34a.5.5,0,0,1,.25-.43.5.5,0,0,1,.5,0l25.77,14.87L398.52,191a.52.52,0,0,1,.75.44v34a.5.5,0,0,1-.25.44l-60,34.65A.47.47,0,0,1,338.76,260.62Zm-25.52-15.81,25.52,14.73,59.51-34.37V192.32L339,226.54a.5.5,0,0,1-.5,0L313.24,212Z"/><path class="cls-2" d="M338.76,260.62a.5.5,0,0,1-.5-.5v-34a.5.5,0,0,1,.5-.5.5.5,0,0,1,.5.5v34A.51.51,0,0,1,338.76,260.62Z"/><polygon class="cls-1" points="385.94 228.22 385.94 217.57 395.33 212.14 395.34 222.79 385.94 228.22"/><path class="cls-2" d="M385.94,228.71a.54.54,0,0,1-.25-.06.52.52,0,0,1-.25-.44V217.57a.52.52,0,0,1,.25-.44l9.39-5.42a.5.5,0,0,1,.5,0,.48.48,0,0,1,.25.43v10.65a.5.5,0,0,1-.25.43l-9.4,5.43A.54.54,0,0,1,385.94,228.71Zm.5-10.85v9.49l8.4-4.85V213Z"/><polygon class="cls-3" points="362.1 212.63 362.1 227.81 375.44 220.11 375.44 204.93 349.4 189.92 336.07 197.62 362.1 212.63"/><path class="cls-2" d="M361.6,228.67V212.92l-26.53-15.3,14.33-8.27.25.14,26.29,15.15V220.4Zm-24.53-31,25.53,14.72v14.6l12.34-7.12v-14.6L349.4,190.5Z"/><line class="cls-3" x1="375.44" y1="204.93" x2="362.1" y2="212.63"/><rect class="cls-2" x="361.07" y="208.28" width="15.4" height="1" transform="translate(-54.98 212.52) rotate(-30.02)"/><polygon class="cls-1" points="0.91 193.93 0.91 227.94 60.93 262.59 153.67 208.86 153.67 174.85 0.91 193.93"/><path class="cls-2" d="M60.93,263.09a.54.54,0,0,1-.25-.06l-60-34.66a.49.49,0,0,1-.25-.43v-34a.5.5,0,0,1,.44-.49l152.76-19.09a.5.5,0,0,1,.56.5v34a.5.5,0,0,1-.25.43L61.18,263A.54.54,0,0,1,60.93,263.09ZM1.41,227.65,60.93,262l92.24-53.45V175.41l-151.76,19Z"/><polygon class="cls-1" points="60.93 228.58 153.67 174.84 93.66 140.19 0.92 193.93 60.93 228.58"/><path class="cls-2" d="M60.93,229.08a.57.57,0,0,1-.25-.06l-60-34.65a.5.5,0,0,1,0-.87L93.4,139.76a.52.52,0,0,1,.51,0l60,34.65a.5.5,0,0,1,0,.87L61.18,229A.54.54,0,0,1,60.93,229.08Zm-59-35.15,59,34.08,91.74-53.16-59-34.08Z"/><polygon class="cls-1" points="0.91 193.93 0.91 227.94 60.93 262.59 153.67 208.85 153.67 174.85 60.93 228.58 0.92 193.93 0.91 193.93"/><path class="cls-2" d="M60.93,263.09a.54.54,0,0,1-.25-.06l-60-34.66a.5.5,0,0,1-.25-.43v-34a.5.5,0,0,1,.5-.5h0a.47.47,0,0,1,.25.07L60.93,228l92.49-53.59a.5.5,0,0,1,.75.44v34a.5.5,0,0,1-.25.44L61.18,263A.54.54,0,0,1,60.93,263.09ZM1.41,227.65,60.93,262l92.24-53.45V175.71l-92,53.3a.5.5,0,0,1-.5,0L1.41,194.79Z"/><path class="cls-2" d="M60.93,263.09a.5.5,0,0,1-.5-.5v-34a.5.5,0,1,1,1,0v34A.5.5,0,0,1,60.93,263.09Z"/><polygon class="cls-1" points="4.35 225.26 4.35 214.62 13.74 220.04 13.74 230.69 4.35 225.26"/><path class="cls-2" d="M13.75,231.19a.43.43,0,0,1-.25-.07L4.1,225.7a.52.52,0,0,1-.25-.43V214.62a.52.52,0,0,1,.25-.44.55.55,0,0,1,.5,0l9.4,5.43a.5.5,0,0,1,.25.43v10.65a.5.5,0,0,1-.25.43A.47.47,0,0,1,13.75,231.19ZM4.85,225l8.4,4.84v-9.49l-8.4-4.85Z"/><polygon class="cls-3" points="37.58 215.1 37.58 230.28 24.25 222.58 24.25 207.4 117.01 153.68 130.34 161.38 37.58 215.1"/><path class="cls-2" d="M38.08,231.15l-14.33-8.28V207.12l93.26-54,14.33,8.28-93.26,54ZM24.75,222.3l12.33,7.12V214.81l92.27-53.43L117,154.26,24.75,207.69Z"/><line class="cls-3" x1="24.25" y1="207.4" x2="37.58" y2="215.1"/><rect class="cls-2" x="30.42" y="203.56" width="1" height="15.4" transform="translate(-167.5 132.41) rotate(-60)"/></svg>