<svg xmlns="http://www.w3.org/2000/svg" viewBox="0 0 1080 1080"><defs><style>.cls-1{fill:#141419;}.cls-2{fill:none;stroke:#141419;stroke-miterlimit:10;}</style></defs><g id="nodes"><g id="neutral"><circle class="cls-1" cx="990" cy="742.07" r="4"/><circle class="cls-1" cx="340" cy="655.47" r="4"/><circle class="cls-1" cx="390" cy="626.6" r="4"/><circle class="cls-1" cx="390" cy="568.87" r="4"/><circle class="cls-1" cx="440" cy="597.74" r="4"/><circle class="cls-1" cx="590" cy="395.66" r="4"/><circle class="cls-1" cx="790" cy="511.13" r="4"/><circle class="cls-1" cx="840" cy="482.26" r="4"/><circle class="cls-1" cx="940" cy="482.26" r="4"/><circle class="cls-1" cx="890" cy="511.13" r="4"/><circle class="cls-1" cx="740" cy="366.79" r="4"/><circle class="cls-1" cx="690" cy="337.93" r="4"/><circle class="cls-1" cx="790" cy="337.93" r="4"/><circle class="cls-1" cx="1040" cy="251.32" r="4"/><circle class="cls-1" cx="940" cy="193.59" r="4"/><circle class="cls-1" cx="840" cy="135.85" r="4"/><circle class="cls-1" cx="840" cy="78.12" r="4"/><circle class="cls-1" cx="890" cy="106.99" r="4"/><circle class="cls-1" cx="890" cy="222.46" r="4"/><circle class="cls-1" cx="1040" cy="193.59" r="4"/><circle class="cls-1" cx="890" cy="395.66" r="4"/><circle class="cls-1" cx="940" cy="424.53" r="4"/><circle class="cls-1" cx="940" cy="366.79" r="4"/><circle class="cls-1" cx="640" cy="193.59" r="4"/><circle class="cls-1" cx="690" cy="164.72" r="4"/><circle class="cls-1" cx="690" cy="106.99" r="4"/><circle class="cls-1" cx="540" cy="366.79" r="4"/><circle class="cls-1" cx="590" cy="626.6" r="4"/><circle class="cls-1" cx="690" cy="568.87" r="4"/><circle class="cls-1" cx="740" cy="597.73" r="4"/><circle class="cls-1" cx="840" cy="655.47" r="4"/><circle class="cls-1" cx="840" cy="713.21" r="4"/><circle class="cls-1" cx="840" cy="828.68" r="4"/><circle class="cls-1" cx="890" cy="799.81" r="4"/><circle class="cls-1" cx="940" cy="828.67" r="4"/><circle class="cls-1" cx="740" cy="828.68" r="4"/><circle class="cls-1" cx="1040" cy="886.41" r="4"/><circle class="cls-1" cx="1040" cy="944.15" r="4"/><circle class="cls-1" cx="490" cy="626.6" r="4"/><circle class="cls-1" cx="390" cy="742.07" r="4"/><circle class="cls-1" cx="440" cy="770.94" r="4"/><circle class="cls-1" cx="490" cy="684.34" r="4"/><circle class="cls-1" cx="990" cy="915.27" r="4"/><circle class="cls-1" cx="940" cy="886.41" r="4"/><circle class="cls-1" cx="690" cy="857.54" r="4"/><circle class="cls-1" cx="940" cy="713.2" r="4"/></g></g><g id="connections"><g id="neutral-2" data-name="neutral"><polyline class="cls-2" points="340 655.47 390 626.6 440 597.74 390 568.87"/><line class="cls-2" x1="990" y1="742.07" x2="940" y2="713.2"/><polyline class="cls-2" points="590 626.6 690 568.87 740 597.74"/><line class="cls-2" x1="540" y1="366.79" x2="590" y2="395.66"/><polyline class="cls-2" points="690 337.93 740 366.79 790 337.93"/><polyline class="cls-2" points="790 511.13 840 482.26 890 511.13 940 482.26"/><polyline class="cls-2" points="640 193.59 690 164.72 690 106.99"/><polyline class="cls-2" points="940 366.79 890 395.66 940 424.53"/><line class="cls-2" x1="890" y1="222.46" x2="940" y2="193.59"/><line class="cls-2" x1="1040" y1="193.59" x2="1040" y2="251.32"/><polyline class="cls-2" points="840 135.85 840 78.12 890 106.99"/><line class="cls-2" x1="840" y1="655.47" x2="840" y2="713.21"/><line class="cls-2" x1="690" y1="857.54" x2="740" y2="828.68"/><polyline class="cls-2" points="840 828.67 890 799.81 940 828.67"/><line class="cls-2" x1="1089.99" y1="973.02" x2="1040" y2="944.15"/><polyline class="cls-2" points="1040 886.41 990 915.27 940 886.41"/><line class="cls-2" x1="490" y1="626.6" x2="490" y2="684.34"/><line class="cls-2" x1="390" y1="742.07" x2="440" y2="770.94"/></g></g></svg>