<svg xmlns="http://www.w3.org/2000/svg" viewBox="0 0 1080 1080"><defs><style>.cls-1{fill:#00dbe9;}.cls-2{fill:none;stroke:#00dbe9;stroke-miterlimit:10;}</style></defs><g id="nodes"><g id="blue"><circle class="cls-1" cx="390" cy="164.72" r="4"/><circle class="cls-1" cx="490" cy="164.72" r="4"/><circle class="cls-1" cx="590" cy="511.13" r="4"/><circle class="cls-1" cx="540" cy="713.21" r="4"/><circle class="cls-1" cx="590" cy="742.07" r="4"/><circle class="cls-1" cx="640" cy="713.2" r="4"/><circle class="cls-1" cx="690" cy="742.07" r="4"/><circle class="cls-1" cx="640" cy="482.26" r="4"/><circle class="cls-1" cx="690" cy="453.4" r="4"/><circle class="cls-1" cx="790" cy="280.19" r="4"/><circle class="cls-1" cx="90" cy="49.25" r="4"/><circle class="cls-1" cx="140" cy="78.12" r="4"/><circle class="cls-1" cx="840" cy="309.06" r="4"/><circle class="cls-1" cx="1040" cy="309.06" r="4"/><circle class="cls-1" cx="990" cy="280.19" r="4"/><circle class="cls-1" cx="1040" cy="655.47" r="4"/><circle class="cls-1" cx="40" cy="886.41" r="4"/><circle class="cls-1" cx="90" cy="857.54" r="4"/><circle class="cls-1" cx="140" cy="886.41" r="4"/><circle class="cls-1" cx="1040" cy="597.73" r="4"/><circle class="cls-1" cx="990" cy="568.87" r="4"/><circle class="cls-1" cx="440" cy="193.59" r="4"/></g></g><g id="connections"><g id="blue-2" data-name="blue"><line class="cls-2" x1="440" y1="193.59" x2="390" y2="164.72"/><polyline class="cls-2" points="1090 568.87 1040 597.74 990 568.87"/><line class="cls-2" x1="1040" y1="597.73" x2="1040" y2="655.47"/><line class="cls-2" x1="490" y1="164.72" x2="440" y2="193.59"/><line class="cls-2" x1="690" y1="453.4" x2="590" y2="511.13"/><line class="cls-2" x1="790" y1="280.19" x2="840" y2="309.06"/><line class="cls-2" x1="990" y1="280.19" x2="1090" y2="337.93"/><polyline class="cls-2" points="540 713.21 590 742.07 640 713.2 690 742.07"/><polyline class="cls-2" points="40 886.41 90 857.54 140 886.41"/><line class="cls-2" x1="90" y1="49.25" x2="140" y2="78.12"/></g></g></svg>