<svg id="outline" xmlns="http://www.w3.org/2000/svg" viewBox="0 0 72 72"><defs><style>.cls-1{fill:#70a0ff;}.cls-2{fill:#fff;}</style></defs><path class="cls-1" d="M6.5,58a.5.5,0,0,1-.5-.5v-7a.5.5,0,0,1,1,0v7A.5.5,0,0,1,6.5,58Z"/><path class="cls-1" d="M12.5,60a.5.5,0,0,1-.5-.5v-7a.5.5,0,0,1,1,0v7A.5.5,0,0,1,12.5,60Z"/><path class="cls-1" d="M27.5,71a.57.57,0,0,1-.18,0l-26-10A.51.51,0,0,1,1,60.5v-34A.51.51,0,0,1,1.3,26L26.48,14.88a.46.46,0,0,1,.38,0l2.46,1a.5.5,0,0,1,.29.65.51.51,0,0,1-.65.28l-2.27-.9L2,26.83V60.16L27.49,70,52,59.17V34.5a.5.5,0,0,1,1,0v25a.51.51,0,0,1-.3.46l-25,11A.45.45,0,0,1,27.5,71Z"/><path class="cls-1" d="M27.5,71a.5.5,0,0,1-.5-.5V36.84L1.32,27A.5.5,0,1,1,1.68,26l26,10a.51.51,0,0,1,.32.47v34A.5.5,0,0,1,27.5,71Z"/><path class="cls-1" d="M31,27a.57.57,0,0,1-.18,0L15.32,21a.5.5,0,0,1,.36-.94L31.15,26A.5.5,0,0,1,31,27Z"/><path class="cls-1" d="M27.5,37a.5.5,0,0,1-.46-.3A.51.51,0,0,1,27.3,36l9-3.93a.5.5,0,1,1,.4.91L27.7,37A.45.45,0,0,1,27.5,37Z"/><path class="cls-2" d="M67.83,44.6a3.14,3.14,0,0,1-2.24-.93L55.38,33.46a.5.5,0,0,1,0-.7.5.5,0,0,1,.71,0L66.29,43a2.22,2.22,0,0,0,3.07,0,2.16,2.16,0,0,0,0-3.07l-10.2-10.2a.5.5,0,0,1,.71-.71l10.2,10.2a3.18,3.18,0,0,1-2.24,5.42Z"/><path class="cls-2" d="M46,36A17.5,17.5,0,1,1,63.5,18.5,17.52,17.52,0,0,1,46,36ZM46,2A16.5,16.5,0,1,0,62.5,18.5,16.52,16.52,0,0,0,46,2Z"/><path class="cls-2" d="M46,36A17.5,17.5,0,1,1,63.5,18.5,17.52,17.52,0,0,1,46,36ZM46,2A16.5,16.5,0,1,0,62.5,18.5,16.52,16.52,0,0,0,46,2Z"/><path class="cls-1" d="M33,19a.5.5,0,0,1-.5-.5A13.52,13.52,0,0,1,46,5a.5.5,0,0,1,0,1A12.52,12.52,0,0,0,33.5,18.5.5.5,0,0,1,33,19Z"/><path class="cls-1" d="M33,19a.5.5,0,0,1-.5-.5A13.52,13.52,0,0,1,46,5a.5.5,0,0,1,0,1A12.52,12.52,0,0,0,33.5,18.5.5.5,0,0,1,33,19Z"/></svg>