<svg id="stroke" xmlns="http://www.w3.org/2000/svg" viewBox="0 0 72 72"><defs><style>.cls-1,.cls-2{fill:none;stroke-linecap:round;stroke-linejoin:round;}.cls-1{stroke:#70a0ff;}.cls-2{stroke:#fff;}</style></defs><polyline class="cls-1" points="59.02 52.8 70 57 36 70 2 57 12.98 52.8"/><polyline class="cls-2" points="59.02 44.4 70 48.6 36 61.6 2 48.6 12.98 44.4"/><polyline class="cls-1" points="59.02 36 70 40.2 36 53.2 2 40.2 12.98 36"/><polyline class="cls-1" points="59.02 27.6 70 31.8 36 44.8 2 31.8 12.98 27.6"/><polyline class="cls-2" points="59.02 19.2 70 23.4 36 36.4 2 23.4 12.98 19.2"/><polygon class="cls-1" points="70 15 36 28 2 15 36 2 70 15"/></svg>