<svg id="outline" xmlns="http://www.w3.org/2000/svg" viewBox="0 0 72 72"><defs><style>.cls-1{fill:#70a0ff;}.cls-2{fill:#fff;}</style></defs><path class="cls-1" d="M68.64,19.12,60.36,9.46A.48.48,0,0,0,60,9.28H40.64V5.64a4.64,4.64,0,0,0-9.28,0v23H12a.5.5,0,0,0-.38.17L3.36,38.43a.5.5,0,0,0,0,.65l8.28,9.67a.5.5,0,0,0,.38.17H31.36V70H20.82a.5.5,0,1,0,0,1H51.18a.5.5,0,1,0,0-1H40.64V29.6H60a.48.48,0,0,0,.38-.18l8.28-9.65A.5.5,0,0,0,68.64,19.12ZM12.25,47.92,4.4,38.76l7.85-9.16H31.36V47.92ZM32.36,70V5.64a3.64,3.64,0,0,1,7.28,0V70ZM59.75,28.6H40.64V10.28H59.75l7.85,9.16Z"/><path class="cls-2" d="M57.94,17.58H45.62a.5.5,0,0,1-.5-.5.51.51,0,0,1,.5-.5H57.94a.5.5,0,0,1,.5.5A.5.5,0,0,1,57.94,17.58Z"/><path class="cls-2" d="M54.7,22.3H45.62a.51.51,0,0,1-.5-.5.5.5,0,0,1,.5-.5H54.7a.5.5,0,0,1,.5.5A.5.5,0,0,1,54.7,22.3Z"/><path class="cls-2" d="M25.81,36.9H13.49a.5.5,0,0,1-.5-.5.5.5,0,0,1,.5-.5H25.81a.5.5,0,0,1,.5.5A.5.5,0,0,1,25.81,36.9Z"/><path class="cls-2" d="M25.81,41.62H13.49a.5.5,0,0,1-.5-.5.5.5,0,0,1,.5-.5H25.81a.5.5,0,0,1,.5.5A.5.5,0,0,1,25.81,41.62Z"/></svg>