<svg id="outline" xmlns="http://www.w3.org/2000/svg" viewBox="0 0 72 72"><defs><style>.cls-1{fill:#70a0ff;}.cls-2{fill:#fff;}</style></defs><path class="cls-1" d="M36,70.5a.57.57,0,0,1-.18,0l-34-13a.51.51,0,0,1,0-.94l11-4.2a.5.5,0,0,1,.64.29.5.5,0,0,1-.29.65L3.4,57,36,69.46,68.6,57l-9.76-3.73a.5.5,0,0,1-.29-.65.5.5,0,0,1,.64-.29l11,4.2a.51.51,0,0,1,0,.94l-34,13A.57.57,0,0,1,36,70.5Z"/><path class="cls-2" d="M36,62.1a.57.57,0,0,1-.18,0l-34-13a.51.51,0,0,1,0-.94l11-4.2a.5.5,0,0,1,.64.29.5.5,0,0,1-.29.65L3.4,48.6,36,61.06,68.6,48.6l-9.76-3.73a.5.5,0,0,1-.29-.65.5.5,0,0,1,.64-.29l11,4.2a.51.51,0,0,1,0,.94l-34,13A.57.57,0,0,1,36,62.1Z"/><path class="cls-1" d="M70.18,39.73,60.41,36l9.77-3.73a.51.51,0,0,0,0-.94l-11-4.2a.5.5,0,0,0-.64.29.5.5,0,0,0,.29.65L68.6,31.8,36,44.26,3.4,31.8l9.76-3.73a.5.5,0,0,0,.29-.65.5.5,0,0,0-.64-.29l-11,4.2a.51.51,0,0,0,0,.94L11.59,36,1.82,39.73a.51.51,0,0,0,0,.94l34,13,.18,0,.18,0,34-13a.51.51,0,0,0,0-.94ZM36,52.67,3.4,40.2,13,36.53l22.84,8.74.18,0,.18,0L59,36.53,68.6,40.2Z"/><path class="cls-2" d="M36,36.9a.57.57,0,0,1-.18,0l-34-13a.51.51,0,0,1,0-.94l11-4.2a.5.5,0,0,1,.64.29.5.5,0,0,1-.29.65L3.4,23.4,36,35.87,68.6,23.4l-9.76-3.73a.5.5,0,0,1-.29-.65.5.5,0,0,1,.64-.29l11,4.2a.51.51,0,0,1,0,.94l-34,13A.57.57,0,0,1,36,36.9Z"/><path class="cls-1" d="M36,28.5a.57.57,0,0,1-.18,0l-34-13a.51.51,0,0,1,0-.94l34-13a.55.55,0,0,1,.36,0l34,13a.51.51,0,0,1,0,.94l-34,13A.57.57,0,0,1,36,28.5ZM3.4,15,36,27.46,68.6,15,36,2.54Z"/></svg>