<svg id="outline" xmlns="http://www.w3.org/2000/svg" viewBox="0 0 72 72"><defs><style>.cls-1{fill:#fff;}.cls-2{fill:#70a0ff;}</style></defs><path class="cls-1" d="M46.5,13h-34a.5.5,0,0,1,0-1h34a.5.5,0,0,1,0,1Z"/><path class="cls-1" d="M46.5,18h-34a.5.5,0,0,1,0-1h34a.5.5,0,0,1,0,1Z"/><path class="cls-1" d="M46.5,23h-34a.5.5,0,0,1,0-1h34a.5.5,0,0,1,0,1Z"/><path class="cls-1" d="M46.5,28h-34a.5.5,0,0,1,0-1h34a.5.5,0,0,1,0,1Z"/><path class="cls-1" d="M36.5,33h-24a.5.5,0,0,1,0-1h24a.5.5,0,0,1,0,1Z"/><path class="cls-2" d="M64.5,31H58V7.5A6.51,6.51,0,0,0,51.5,1H7.5A6.51,6.51,0,0,0,1,7.5v31A6.51,6.51,0,0,0,7.5,45h3.79L22.15,55.85a.47.47,0,0,0,.35.15.43.43,0,0,0,.19,0A.5.5,0,0,0,23,55.5V44h9V56.5A6.51,6.51,0,0,0,38.5,63H55v7.5a.5.5,0,0,0,.31.46.43.43,0,0,0,.19,0,.47.47,0,0,0,.35-.15L63.71,63h.79A6.51,6.51,0,0,0,71,56.5v-19A6.51,6.51,0,0,0,64.5,31Zm-42,12a.5.5,0,0,0-.5.5V54.29L11.85,44.15A.47.47,0,0,0,11.5,44h-4A5.51,5.51,0,0,1,2,38.5V7.5A5.51,5.51,0,0,1,7.5,2h44A5.51,5.51,0,0,1,57,7.5v30A5.51,5.51,0,0,1,51.5,43ZM70,56.5A5.51,5.51,0,0,1,64.5,62h-1a.47.47,0,0,0-.35.15L56,69.29V62.5a.5.5,0,0,0-.5-.5h-17A5.51,5.51,0,0,1,33,56.5V44H51.5A6.51,6.51,0,0,0,58,37.5V32h6.5A5.51,5.51,0,0,1,70,37.5Z"/></svg>