<svg width="70" height="70" viewBox="0 0 70 70" fill="none" xmlns="http://www.w3.org/2000/svg">
<path d="M0 0L0 70L70 0H0Z" fill="#75A3FF"/>
<path d="M14.3864 44.8268C14.3015 44.9117 14.2082 44.9541 14.1064 44.9541C14.0045 44.9541 13.9112 44.9117 13.8264 44.8268L5.48957 36.49C5.40471 36.4052 5.36229 36.3118 5.36229 36.21C5.3538 36.0997 5.39199 36.0021 5.47684 35.9173L8.79883 32.5953C9.63887 31.7552 10.4916 31.3352 11.3571 31.3352C12.2226 31.3352 12.9821 31.6619 13.6354 32.3153C14.1361 32.8159 14.4373 33.3377 14.5391 33.8808C14.6409 34.4239 14.6112 34.9203 14.45 35.37C15.0016 35.1918 15.5913 35.1706 16.2192 35.3063C16.8556 35.4336 17.4241 35.7476 17.9247 36.2482C18.366 36.6894 18.6757 37.2113 18.8539 37.8137C19.0321 38.3992 19.0406 39.0102 18.8793 39.6466C18.7096 40.2745 18.349 40.8642 17.7975 41.4157L14.3864 44.8268ZM12.5027 36.63C13.1306 36.0021 13.47 35.3912 13.5209 34.7972C13.5718 34.1863 13.3427 33.6262 12.8336 33.1171C12.3329 32.6165 11.7899 32.4044 11.2044 32.4807C10.6274 32.5486 10.025 32.8965 9.39704 33.5244L6.76236 36.1591L9.86797 39.2647L12.5027 36.63ZM16.9065 40.7793C17.5259 40.1599 17.8484 39.515 17.8738 38.8447C17.8908 38.1659 17.6405 37.5677 17.1229 37.0501C16.5968 36.524 15.9986 36.2737 15.3283 36.2991C14.6579 36.3246 14.013 36.647 13.3936 37.2664L10.6316 40.0284L14.1446 43.5413L16.9065 40.7793ZM23.3382 35.875C23.2533 35.9599 23.16 36.0023 23.0582 36.0023C22.9564 36.0023 22.863 35.9599 22.7782 35.875L14.4414 27.5382C14.3565 27.4534 14.3141 27.36 14.3141 27.2582C14.3056 27.1479 14.3438 27.0503 14.4286 26.9655L19.3925 22.0016C19.4859 21.9082 19.5835 21.8616 19.6853 21.8616C19.7871 21.8616 19.8847 21.9082 19.978 22.0016L20.1689 22.1925C20.2538 22.2773 20.292 22.3749 20.2835 22.4852C20.2835 22.5871 20.2411 22.6804 20.1562 22.7653L15.7142 27.2073L18.9598 30.4529L23.1218 26.2909C23.2152 26.1975 23.3127 26.1509 23.4146 26.1509C23.5164 26.1509 23.614 26.1975 23.7073 26.2909L23.8982 26.4818C23.9831 26.5667 24.0213 26.6642 24.0128 26.7745C24.0128 26.8764 23.9703 26.9697 23.8855 27.0546L19.7235 31.2166L23.0964 34.5895L27.6402 30.0456C27.7336 29.9523 27.8311 29.9056 27.933 29.9056C28.0348 29.9056 28.1324 29.9523 28.2257 30.0456L28.4166 30.2365C28.5015 30.3214 28.5397 30.419 28.5312 30.5293C28.5312 30.6311 28.4888 30.7244 28.4039 30.8093L23.3382 35.875ZM33.4543 25.7589C33.3695 25.8438 33.2761 25.8862 33.1743 25.8862C33.0725 25.8862 32.9791 25.8438 32.8943 25.7589L25.0284 17.893L22.5083 20.4132C22.4234 20.498 22.3301 20.5405 22.2283 20.5405C22.1265 20.5405 22.0331 20.498 21.9483 20.4132L21.7573 20.2223C21.6725 20.1374 21.6301 20.0441 21.6301 19.9422C21.6216 19.8319 21.6598 19.7343 21.7446 19.6495L27.574 13.8201C27.6673 13.7268 27.7649 13.6801 27.8667 13.6801C27.9686 13.6801 28.0661 13.7268 28.1595 13.8201L28.3504 14.011C28.4353 14.0959 28.4734 14.1935 28.465 14.3038C28.465 14.4056 28.4225 14.4989 28.3377 14.5838L25.8303 17.0912L33.6961 24.957C33.781 25.0419 33.8192 25.1395 33.8107 25.2498C33.8107 25.3516 33.7683 25.4449 33.6834 25.5298L33.4543 25.7589ZM37.3547 21.8585C37.2868 21.9264 37.202 21.9603 37.1002 21.9603C36.9983 21.9603 36.9135 21.9264 36.8456 21.8585L36.731 21.693L31.6908 10.2124C31.589 9.97485 31.6271 9.76696 31.8053 9.58877L32.2381 9.15602C32.4163 8.97783 32.6242 8.93965 32.8618 9.04147L44.3423 14.0817L44.5078 14.1963C44.5757 14.2642 44.6096 14.349 44.6096 14.4508C44.6096 14.5527 44.5757 14.6375 44.5078 14.7054L44.2533 14.96C44.1769 15.0363 44.092 15.0787 43.9987 15.0872C43.9138 15.0872 43.8417 15.0745 43.7823 15.049L40.9567 13.8017L36.451 18.3074L37.6984 21.133C37.7238 21.1924 37.7323 21.2688 37.7238 21.3621C37.7238 21.447 37.6856 21.5276 37.6093 21.6039L37.3547 21.8585ZM35.9928 17.2383L39.8876 13.3435L32.9254 10.2761L35.9928 17.2383Z" fill="#1C2026"/>
</svg>
