<svg id="outline" xmlns="http://www.w3.org/2000/svg" viewBox="0 0 36 36"><defs><style>.cls-1{fill:#70a0ff;}</style></defs><path class="cls-1" d="M33.5,19H31.76l-4.55-6.37A1.49,1.49,0,0,0,26,12H23V6.06A1.08,1.08,0,0,0,21.92,5H2.08A1.08,1.08,0,0,0,1,6.06V26.14A1.76,1.76,0,0,0,2.68,28H5.05A3.48,3.48,0,0,0,12,28h13.1A3.48,3.48,0,0,0,32,28H33.5A1.5,1.5,0,0,0,35,26.5v-6A1.5,1.5,0,0,0,33.5,19ZM26,13a.49.49,0,0,1,.4.21L30.53,19H23V13ZM2.08,6H21.92S22,6,22,6.06V19H2V6.06S2,6,2.08,6ZM2,26.14V20H22v7H12a3.48,3.48,0,0,0-6.9,0H2.68A.78.78,0,0,1,2,26.14ZM8.5,30A2.5,2.5,0,1,1,11,27.5,2.5,2.5,0,0,1,8.5,30Zm20,0A2.5,2.5,0,1,1,31,27.5,2.5,2.5,0,0,1,28.5,30ZM34,26.5a.5.5,0,0,1-.5.5H32a3.48,3.48,0,0,0-6.9,0H23V20H33.5a.5.5,0,0,1,.5.5Z"/></svg>