<svg id="outline" xmlns="http://www.w3.org/2000/svg" viewBox="0 0 36 36"><defs><style>.cls-1{fill:#70a0ff;}</style></defs><path class="cls-1" d="M29.64,8.53A15,15,0,1,0,33,18,15,15,0,0,0,29.64,8.53Zm-.52,18a17.2,17.2,0,0,0-4-1.65A26.38,26.38,0,0,0,26,18.5h6A14.11,14.11,0,0,1,29.12,26.5Zm-22.24,0A14.11,14.11,0,0,1,4,18.5h6a26,26,0,0,0,.87,6.35A17.09,17.09,0,0,0,6.88,26.5Zm0-17a17.2,17.2,0,0,0,4,1.65A26.38,26.38,0,0,0,10,17.5H4A14.11,14.11,0,0,1,6.88,9.5ZM18.5,23.89V18.5H25a25.38,25.38,0,0,1-.83,6.1A25.91,25.91,0,0,0,18.5,23.89Zm-6.69.71A25.45,25.45,0,0,1,11,18.5H17.5v5.39A25.91,25.91,0,0,0,11.81,24.6ZM17.5,12.11V17.5H11a25.38,25.38,0,0,1,.83-6.1A25.91,25.91,0,0,0,17.5,12.11Zm1,5.39V12.11a25.91,25.91,0,0,0,5.69-.71A25.45,25.45,0,0,1,25,17.5Zm0-6.39V4c2.17.32,4.19,2.7,5.41,6.4A25.27,25.27,0,0,1,18.5,11.11ZM17.5,4v7.07a25.27,25.27,0,0,1-5.41-.67C13.31,6.74,15.33,4.36,17.5,4Zm0,20.85V32c-2.17-.32-4.19-2.7-5.41-6.4A25.27,25.27,0,0,1,17.5,24.89Zm1,7.07V24.89a25.27,25.27,0,0,1,5.41.67C22.69,29.26,20.67,31.64,18.5,32ZM26,17.5a26,26,0,0,0-.87-6.35,17.09,17.09,0,0,0,4-1.65,14.11,14.11,0,0,1,2.86,8Zm2.44-8.78a16,16,0,0,1-3.58,1.47A12.93,12.93,0,0,0,21.5,4.46,14,14,0,0,1,28.46,8.72Zm-14-4.26a12.93,12.93,0,0,0-3.38,5.73A16.23,16.23,0,0,1,7.54,8.72,14,14,0,0,1,14.5,4.46Zm-7,22.82a16,16,0,0,1,3.58-1.47,12.93,12.93,0,0,0,3.38,5.73A14,14,0,0,1,7.54,27.28Zm14,4.26a12.93,12.93,0,0,0,3.38-5.73,16.23,16.23,0,0,1,3.58,1.47A14,14,0,0,1,21.5,31.54Z"/></svg>