<svg id="outline" xmlns="http://www.w3.org/2000/svg" viewBox="0 0 36 36"><defs><style>.cls-1{fill:#70a0ff;}</style></defs><path class="cls-1" d="M19.5,16H15.12L17,7.61a.5.5,0,0,0-.86-.45l-10,11A.51.51,0,0,0,6,18.7a.51.51,0,0,0,.46.3h4.38L9,27.39a.5.5,0,0,0,.26.55A.46.46,0,0,0,9.5,28a.52.52,0,0,0,.37-.16l10-11A.51.51,0,0,0,20,16.3.51.51,0,0,0,19.5,16Zm-9.1,9.77L12,18.61a.49.49,0,0,0-.1-.42A.51.51,0,0,0,11.5,18H7.63l8-8.77L14,16.39a.49.49,0,0,0,.1.42.51.51,0,0,0,.39.19h3.87Z"/><path class="cls-1" d="M34.5,8H34V5.5a.5.5,0,0,0-1,0V8H30V5.5a.5.5,0,0,0-1,0V8h-.5a.5.5,0,0,0-.5.5V11a3,3,0,0,0,3,3V29a2,2,0,0,1-4,0V24a3,3,0,0,0-3-3H23V5.5A4.62,4.62,0,0,0,18.28,1H7.72A4.62,4.62,0,0,0,3,5.5V34H1.5a.5.5,0,0,0,0,1h23a.5.5,0,0,0,0-1H23V22h1a2,2,0,0,1,2,2v5a3,3,0,0,0,6,0V14a3,3,0,0,0,3-3V8.5A.5.5,0,0,0,34.5,8ZM4,34V5.5A3.62,3.62,0,0,1,7.72,2H18.28A3.62,3.62,0,0,1,22,5.5V34ZM34,11a2,2,0,0,1-2,2H31a2,2,0,0,1-2-2V9h5Z"/></svg>