<svg id="outline" xmlns="http://www.w3.org/2000/svg" viewBox="0 0 36 36"><defs><style>.cls-1{fill:#70a0ff;}</style></defs><path class="cls-1" d="M32.14,5.4a9.52,9.52,0,0,0-13.91,0L18,5.65l-.23-.25a9.53,9.53,0,0,0-13.92,0A10.46,10.46,0,0,0,1,12.65,10.61,10.61,0,0,0,3.14,19l.95,1H1.5a.5.5,0,0,0,0,1H5.07L17.16,33.27a1.15,1.15,0,0,0,.84.35,1.16,1.16,0,0,0,.84-.35L32.13,19.91h0A10.42,10.42,0,0,0,35,12.65,10.45,10.45,0,0,0,32.14,5.4Zm-.72,13.8.36.34-.36-.34L18.13,32.57a.19.19,0,0,1-.26,0L6.47,21H10a.5.5,0,0,0,.47-.33l3-8.47L17,25.63a.5.5,0,0,0,.44.37h0a.51.51,0,0,0,.46-.3l3.5-7.88,1.07,2.86A.51.51,0,0,0,23,21h3a.5.5,0,0,0,0-1H23.35L22,16.32a.5.5,0,0,0-.46-.32.52.52,0,0,0-.47.3L17.62,24,14,10.37a.49.49,0,0,0-.46-.37.5.5,0,0,0-.49.33L9.65,20H5.49L3.9,18.39A9.58,9.58,0,0,1,2,12.65,9.48,9.48,0,0,1,4.58,6.09,8.52,8.52,0,0,1,17,6.09c.2.21.39.43.57.65a.51.51,0,0,0,.78,0c.18-.22.36-.44.56-.65a8.53,8.53,0,0,1,12.47,0,9.62,9.62,0,0,1,0,13.11Z"/></svg>