<svg id="outline" xmlns="http://www.w3.org/2000/svg" viewBox="0 0 36 36"><defs><style>.cls-1{fill:#70a0ff;}</style></defs><path class="cls-1" d="M33.5,10H21V4.5a.5.5,0,0,0-.5-.5H17V1.5a.5.5,0,0,0-.5-.5H6.5a.5.5,0,0,0-.5.5V4H2.5a.5.5,0,0,0-.5.5v29a.5.5,0,0,0,.5.5h31a.5.5,0,0,0,.5-.5v-23A.5.5,0,0,0,33.5,10ZM7,2h9V4H7ZM20,5V33H14V28.5a.5.5,0,0,0-.5-.5h-4a.5.5,0,0,0-.5.5V33H3V5ZM13,33H10V29h3Zm8,0V11H33V33Z"/><path class="cls-1" d="M6.5,9h10a.5.5,0,0,0,0-1H6.5a.5.5,0,0,0,0,1Z"/><path class="cls-1" d="M6.5,14h10a.5.5,0,0,0,0-1H6.5a.5.5,0,0,0,0,1Z"/><path class="cls-1" d="M6.5,19h10a.5.5,0,0,0,0-1H6.5a.5.5,0,0,0,0,1Z"/><path class="cls-1" d="M6.5,24h10a.5.5,0,0,0,0-1H6.5a.5.5,0,0,0,0,1Z"/><path class="cls-1" d="M24.5,14a.5.5,0,0,0-.5.5v3a.5.5,0,0,0,1,0v-3A.5.5,0,0,0,24.5,14Z"/><path class="cls-1" d="M29.5,14a.5.5,0,0,0-.5.5v3a.5.5,0,0,0,1,0v-3A.5.5,0,0,0,29.5,14Z"/><path class="cls-1" d="M24.5,20a.5.5,0,0,0-.5.5v3a.5.5,0,0,0,1,0v-3A.5.5,0,0,0,24.5,20Z"/><path class="cls-1" d="M29.5,20a.5.5,0,0,0-.5.5v3a.5.5,0,0,0,1,0v-3A.5.5,0,0,0,29.5,20Z"/><path class="cls-1" d="M24.5,26a.5.5,0,0,0-.5.5v3a.5.5,0,0,0,1,0v-3A.5.5,0,0,0,24.5,26Z"/><path class="cls-1" d="M29.5,26a.5.5,0,0,0-.5.5v3a.5.5,0,0,0,1,0v-3A.5.5,0,0,0,29.5,26Z"/></svg>