<svg id="outline" xmlns="http://www.w3.org/2000/svg" viewBox="0 0 36 36"><defs><style>.cls-1{fill:#70a0ff;}</style></defs><path class="cls-1" d="M33.78,17.39a9,9,0,0,0-14.85-7C17.35,5.76,14.56,1,11.28,1,6.14,1,2.22,12.64,2.22,17.39a9.06,9.06,0,0,0,8.56,9V30a21.16,21.16,0,0,0-4.62,1.65.51.51,0,0,0-.22.67.5.5,0,0,0,.68.22,24.23,24.23,0,0,1,9.09-2.3l-3,4a.51.51,0,0,0,.1.7.49.49,0,0,0,.3.1.51.51,0,0,0,.4-.2L17,30.13q1,0,2,0l3.5,4.67a.51.51,0,0,0,.4.2.49.49,0,0,0,.3-.1.51.51,0,0,0,.1-.7l-3-4a24.23,24.23,0,0,1,9.09,2.3.53.53,0,0,0,.23.06.5.5,0,0,0,.23-1A21.16,21.16,0,0,0,25.22,30V26.42A9.06,9.06,0,0,0,33.78,17.39ZM24.72,9.33a8.05,8.05,0,0,1,.5,16.09V22.48L28.74,19a.49.49,0,1,0-.7-.7l-2.82,2.81V13.72a.5.5,0,0,0-.5-.5.51.51,0,0,0-.5.5V17.4l-1.59-1.59a.5.5,0,1,0-.71.71l2.3,2.3v6.6a8,8,0,0,1-5.58-2.78,9,9,0,0,0,1.69-5.25,22.36,22.36,0,0,0-1.06-5.91A8,8,0,0,1,24.72,9.33ZM3.22,17.39C3.22,12.58,7.12,2,11.28,2s8,10.58,8,15.39a8.06,8.06,0,0,1-7.55,8V22.48L15.3,19a.5.5,0,0,0,0-.7.5.5,0,0,0-.71,0l-2.81,2.81V15.15l2.3-2.3a.5.5,0,0,0,0-.7.5.5,0,0,0-.71,0l-1.59,1.59V8.83a.51.51,0,0,0-.5-.5.5.5,0,0,0-.5.5v9.8L8,15.81a.5.5,0,0,0-.7,0,.5.5,0,0,0,0,.71L10.78,20v5.38A8.06,8.06,0,0,1,3.22,17.39ZM19.34,29.15h-.11c-.82,0-1.65,0-2.47,0h-.09a31.13,31.13,0,0,0-4.89.58V26.42a9,9,0,0,0,6.22-3,9,9,0,0,0,6.22,3v3.31A31.14,31.14,0,0,0,19.34,29.15Z"/></svg>