<svg id="outline" xmlns="http://www.w3.org/2000/svg" viewBox="0 0 36 36"><defs><style>.cls-1{fill:#70a0ff;}</style></defs><path class="cls-1" d="M28.5,9h-.21A4.46,4.46,0,0,0,30,5.5a4.5,4.5,0,0,0-9,0A4.46,4.46,0,0,0,22.71,9H22.5A4.51,4.51,0,0,0,18,13.5v7A3.5,3.5,0,0,0,21,24V34.5a.5.5,0,0,0,.5.5h8a.5.5,0,0,0,.5-.5V24a3.5,3.5,0,0,0,3-3.45v-7A4.51,4.51,0,0,0,28.5,9ZM22,5.5A3.5,3.5,0,1,1,25.5,9,3.5,3.5,0,0,1,22,5.5Zm10,15A2.5,2.5,0,0,1,30,23V14.5a.5.5,0,0,0-1,0V34H26V22.5a.5.5,0,0,0-1,0V34H22V14.5a.5.5,0,0,0-1,0V23a2.5,2.5,0,0,1-2-2.45v-7A3.5,3.5,0,0,1,22.5,10h6A3.5,3.5,0,0,1,32,13.5Z"/><path class="cls-1" d="M11.89,13a3.5,3.5,0,1,0-4.78,0A4.48,4.48,0,0,0,3,17.5v5A3.5,3.5,0,0,0,6,26V34.5a.5.5,0,0,0,.5.5h6a.5.5,0,0,0,.5-.5V26a3.5,3.5,0,0,0,3-3.45v-5A4.48,4.48,0,0,0,11.89,13ZM7,10.5A2.5,2.5,0,1,1,9.5,13,2.5,2.5,0,0,1,7,10.5Zm8,12A2.5,2.5,0,0,1,13,25V18.5a.5.5,0,0,0-1,0V34H10V24.5a.5.5,0,0,0-1,0V34H7V18.5a.5.5,0,0,0-1,0V25A2.5,2.5,0,0,1,4,22.5v-5A3.5,3.5,0,0,1,7.5,14h4A3.5,3.5,0,0,1,15,17.5Z"/></svg>