<svg id="outline" xmlns="http://www.w3.org/2000/svg" viewBox="0 0 36 36"><defs><style>.cls-1{fill:#70a0ff;}</style></defs><path class="cls-1" d="M31.5,30H28V28h1a3,3,0,0,0,3-3V13a3,3,0,0,0-3-3H22A3.48,3.48,0,0,0,19,7.05V4.5a.5.5,0,0,0-.5-.5H17V1.5a.5.5,0,0,0-.5-.5h-3a.5.5,0,0,0-.5.5V4H11.5a.5.5,0,0,0-.5.5v15a.5.5,0,0,0,.5.5H13v2.5a.5.5,0,0,0,.5.5h3a.5.5,0,0,0,.5-.5V20h1.5a.5.5,0,0,0,.5-.5V14A3.48,3.48,0,0,0,22,11H29a2,2,0,0,1,2,2V25a2,2,0,0,1-2,2H28a3.49,3.49,0,0,0-6.95.5V30H4.5A3.5,3.5,0,0,0,1,33.5v1a.5.5,0,0,0,.5.5h33a.5.5,0,0,0,.5-.5v-1A3.5,3.5,0,0,0,31.5,30ZM14,2h2V4H14Zm2,20H14V20h2Zm.5-3H12V5h6V7.05A3.48,3.48,0,0,0,18,14V19Zm2-6A2.5,2.5,0,1,1,21,10.5,2.5,2.5,0,0,1,18.5,13ZM34,34H2v-.5A2.5,2.5,0,0,1,4.5,31h17a.5.5,0,0,0,.5-.5v-3a2.5,2.5,0,0,1,5,0v3a.5.5,0,0,0,.5.5h4A2.5,2.5,0,0,1,34,33.5Z"/></svg>