<svg id="outline" xmlns="http://www.w3.org/2000/svg" viewBox="0 0 36 36"><defs><style>.cls-1{fill:#70a0ff;}</style></defs><path class="cls-1" d="M35,19.39s0-.06,0-.09h0l-6.5-15h0A.51.51,0,0,0,28,4H18.5V1.5a.5.5,0,0,0-1,0V4H8a.51.51,0,0,0-.46.3h0L1,19.3H1s0,.06,0,.09a.43.43,0,0,0,0,.11H1c0,3,3.14,5.5,7,5.5s7-2.47,7-5.5h0a.43.43,0,0,0,0-.11s0-.06,0-.09h0L8.76,5H17.5V29.74l-6.28,4.35a.5.5,0,0,0,.28.91h13a.5.5,0,0,0,.28-.91L18.5,29.74V5h8.74L21,19.3h0s0,.06,0,.09a.43.43,0,0,0,0,.11h0c0,3,3.14,5.5,7,5.5s7-2.47,7-5.5h0A.43.43,0,0,0,35,19.39ZM8,5.76,13.74,19H2.26ZM8,24c-3.08,0-5.63-1.75-6-4H14C13.63,22.25,11.08,24,8,24Zm5.1,10L18,30.61,22.9,34ZM33.74,19H22.26L28,5.76ZM28,24c-3.08,0-5.63-1.75-6-4H34C33.63,22.25,31.08,24,28,24Z"/></svg>