<svg id="outline" xmlns="http://www.w3.org/2000/svg" viewBox="0 0 36 36"><defs><style>.cls-1{fill:#70a0ff;}</style></defs><path class="cls-1" d="M33.5,5H32V3.5a.51.51,0,0,0-.5-.5H22c-2.12,0-3.16.36-4,1.51C17.24,3.36,16.21,3,14.09,3H4.5a.51.51,0,0,0-.5.5V5H2.5A1.5,1.5,0,0,0,1,6.5v23A1.5,1.5,0,0,0,2.5,31h10c1.79,0,3,.58,3.55,1.72a.51.51,0,0,0,.45.28h3a.51.51,0,0,0,.45-.28C20.52,31.58,21.71,31,23.5,31h10A1.5,1.5,0,0,0,35,29.5V6.5A1.5,1.5,0,0,0,33.5,5ZM22,4h9c0,16.26,0,21.35,0,23H22c-1.74,0-2.75.25-3.5,1V5.7C19.15,4.41,19.73,4,22,4ZM14.09,4c2.17,0,2.79.38,3.41,1.55V27.9c-.74-.67-1.74-.9-3.41-.9H5C5,25.35,5,20.26,5,4ZM34,29.5a.5.5,0,0,1-.5.5h-10c-2,0-3.5.69-4.29,2H16.79c-.79-1.31-2.26-2-4.29-2H2.5a.5.5,0,0,1-.5-.5V6.5A.5.5,0,0,1,2.5,6H4c0,8.3,0,20.79,0,21.44v.06a.5.5,0,0,0,.5.5h9.59c2.28,0,2.85.41,3.5,1.72a.5.5,0,0,0,.9,0C19.15,28.41,19.72,28,22,28h9.5a.5.5,0,0,0,.5-.5v-.06C32,26.79,32,14.3,32,6h1.5a.5.5,0,0,1,.5.5Z"/><path class="cls-1" d="M7.5,10h7a.5.5,0,0,0,0-1h-7a.5.5,0,0,0,0,1Z"/><path class="cls-1" d="M7.5,14h7a.5.5,0,0,0,0-1h-7a.5.5,0,0,0,0,1Z"/><path class="cls-1" d="M7.5,18h7a.5.5,0,0,0,0-1h-7a.5.5,0,0,0,0,1Z"/><path class="cls-1" d="M7.5,22h7a.5.5,0,0,0,0-1h-7a.5.5,0,0,0,0,1Z"/><path class="cls-1" d="M21.5,10h7a.5.5,0,0,0,0-1h-7a.5.5,0,0,0,0,1Z"/><path class="cls-1" d="M21.5,14h7a.5.5,0,0,0,0-1h-7a.5.5,0,0,0,0,1Z"/><path class="cls-1" d="M21.5,18h7a.5.5,0,0,0,0-1h-7a.5.5,0,0,0,0,1Z"/><path class="cls-1" d="M21.5,22h7a.5.5,0,0,0,0-1h-7a.5.5,0,0,0,0,1Z"/></svg>